<svg version="1.1" id="Layer_1" xmlns="http://www.w3.org/2000/svg" xmlns:xlink="http://www.w3.org/1999/xlink" x="0px" y="0px"
	 width="100%" viewBox="0 0 226 223" enable-background="new 0 0 226 223" xml:space="preserve">
<path fill="#020202" opacity="1.000000" stroke="none" 
	d="
M227.000000,72.000000 
	C227.000000,122.632698 227.000000,173.265396 227.000000,223.949036 
	C151.751175,223.949036 76.502296,223.949036 1.126712,223.949036 
	C1.126712,149.666809 1.126712,75.333435 1.126712,1.000000 
	C18.085384,1.000000 35.074032,1.000000 52.912529,1.325771 
	C53.504944,3.275331 52.810143,4.970111 53.060341,6.511502 
	C54.814663,17.319399 52.278084,27.581621 49.257637,38.067360 
	C49.088032,38.874878 49.064411,39.437431 48.848434,40.316307 
	C47.922161,42.825748 47.149418,45.006752 46.460495,47.213921 
	C41.274582,63.828568 41.934895,80.108490 49.352318,96.328629 
	C58.043125,115.298157 73.273354,126.507828 90.798309,135.132629 
	C91.271980,134.793503 91.745651,134.454361 92.219330,134.115234 
	C91.699326,127.719711 91.179321,121.324188 90.659325,114.928665 
	C90.186180,114.851501 89.713043,114.774330 89.239906,114.697166 
	C86.678719,117.872589 84.117531,121.048012 80.932991,124.996292 
	C74.625122,119.760834 68.567108,114.732742 62.443863,109.679764 
	C62.378635,109.654869 62.340054,109.520660 62.362358,109.176231 
	C59.248344,103.947937 56.112026,99.064072 52.987503,93.944824 
	C52.991814,93.372307 52.857231,93.097420 52.508488,92.551460 
	C52.207382,91.811966 51.993340,91.405792 51.773155,90.626244 
	C48.847263,82.347504 47.211262,74.275513 48.043518,66.627884 
	C54.048550,66.830475 59.478600,66.988617 64.904823,67.232124 
	C65.504402,67.259033 66.082077,67.773972 66.758057,68.353348 
	C68.231033,69.384804 69.615875,70.125488 71.435028,71.032959 
	C75.252419,72.491333 76.808517,71.200752 76.708366,67.710236 
	C76.634735,65.144173 76.467422,62.580803 76.493225,59.648903 
	C76.055649,56.874226 77.755104,53.098854 72.704071,53.087242 
	C72.272400,52.671719 72.135376,52.351810 71.998352,52.031898 
	C72.996506,51.662228 73.994667,51.292557 75.321953,50.881386 
	C75.719780,50.226452 75.788475,49.613018 75.873199,48.611053 
	C74.949867,44.423447 74.170563,40.572945 72.976089,36.855850 
	C72.605469,35.702526 71.108063,34.911301 70.144707,33.628746 
	C71.401131,32.095985 72.639381,30.888777 74.078659,29.994797 
	C74.959984,30.576206 75.640274,30.844391 76.267998,31.422138 
	C76.296028,32.550255 76.376633,33.368809 76.411835,34.622940 
	C76.726234,37.370132 77.086029,39.681747 77.369064,42.262245 
	C77.507645,43.028973 77.722992,43.526814 77.901749,44.439156 
	C78.300415,47.902004 78.735695,50.950359 79.099663,54.297440 
	C79.234406,55.337635 79.440460,56.079102 79.793579,57.286110 
	C82.760887,61.191231 84.628433,56.498840 87.124298,57.307800 
	C82.356636,67.555466 82.532303,77.985130 83.366478,88.697227 
	C83.006279,89.001823 82.863747,89.125488 82.416801,89.007385 
	C81.784546,86.330040 81.276947,83.901711 81.178238,81.456886 
	C81.074593,78.889931 81.388054,76.152908 77.573654,76.626610 
	C73.955658,77.075912 73.684677,79.967377 74.259781,82.596619 
	C74.697304,84.596909 76.203171,86.346626 77.114426,88.264511 
	C78.223831,90.599442 79.208176,92.993797 80.181648,95.620590 
	C80.224709,96.208900 80.332741,96.539062 80.483910,97.307388 
	C82.524796,98.162460 84.522537,98.579376 87.031700,99.103012 
	C87.544899,101.467400 88.092239,104.684509 88.955986,107.814285 
	C90.452599,113.237251 96.409348,119.042137 100.553528,119.329491 
	C100.622345,119.368149 100.695686,119.507950 100.479019,119.847107 
	C111.591805,129.844482 129.702042,124.688614 136.249954,109.830338 
	C136.694901,109.117836 136.908783,108.581619 137.401031,107.957413 
	C137.944000,107.585945 138.208603,107.302460 138.788269,107.128586 
	C139.406082,108.502861 139.708832,109.767525 140.015778,111.395355 
	C138.575882,113.457420 137.242096,115.267281 135.666382,116.833786 
	C131.443283,121.032188 126.659332,124.771423 123.044861,129.427902 
	C121.490715,131.430069 122.277191,135.249084 122.000275,138.242676 
	C124.504921,138.014481 127.560394,138.631729 129.423035,137.418152 
	C139.934006,130.569885 151.223907,124.417160 160.273849,115.923538 
	C184.033859,93.624084 187.044083,54.540260 168.038971,29.316217 
	C166.924225,24.974928 165.893692,20.987947 164.924927,16.723022 
	C164.865692,15.899881 164.744659,15.354680 164.619019,14.382530 
	C163.742950,9.637055 162.871475,5.318527 162.000000,1.000000 
	C182.687561,1.000000 203.375122,1.000000 224.479401,1.466150 
	C224.890228,23.300873 224.828262,44.669819 224.970871,66.037399 
	C224.984177,68.029358 226.292801,70.012672 227.000000,72.000000 
M151.335724,180.916733 
	C151.230255,181.293106 151.124786,181.669464 150.528000,182.429962 
	C149.698639,183.250717 148.869278,184.071472 147.995850,184.048126 
	C149.477280,176.679230 150.958710,169.310318 152.441452,161.934906 
	C145.165482,158.852707 143.005783,159.794235 140.875931,167.037781 
	C140.502563,168.307617 140.301758,169.630447 139.894165,170.887604 
	C137.870682,177.128738 135.085632,182.928207 130.110214,187.560043 
	C129.733475,185.272308 129.649857,183.117065 130.122513,181.091629 
	C131.137604,176.741760 132.724808,172.509018 133.496201,168.125961 
	C133.849396,166.119064 133.493988,162.712296 132.270966,162.009521 
	C130.544449,161.017441 127.416725,161.303650 125.439034,162.225494 
	C123.336624,163.205460 121.481979,165.322800 120.223015,167.375259 
	C117.891632,171.176025 116.085930,175.297974 114.031937,179.270981 
	C113.499512,180.300827 112.858360,181.274490 112.267159,182.273956 
	C111.854218,182.085739 111.441277,181.897507 111.028343,181.709290 
	C113.130043,175.230042 115.231750,168.750793 117.342972,162.242188 
	C112.867828,160.114288 108.688454,160.533890 107.051109,163.901886 
	C103.074661,172.081421 100.273056,180.570068 101.800781,189.908813 
	C102.335060,193.174820 104.204376,194.950272 107.444298,195.171646 
	C110.703728,195.394379 113.000099,194.568069 114.082352,190.792053 
	C115.618538,185.432220 117.926529,180.293594 119.904724,175.060440 
	C120.297523,175.202850 120.690331,175.345261 121.083138,175.487671 
	C120.437469,179.557434 119.152214,183.663666 119.381500,187.683517 
	C119.523308,190.169556 121.456581,193.629089 123.539307,194.594742 
	C125.263870,195.394348 128.903214,193.775635 130.757629,192.156021 
	C133.144699,190.071182 134.596893,186.915939 135.835083,185.117477 
	C137.828033,187.615601 139.912964,190.229004 142.781998,192.993744 
	C143.846542,192.998550 144.911102,193.003357 145.851898,193.677612 
	C142.324493,197.111176 138.312393,200.183655 135.408478,204.081696 
	C132.606812,207.842453 132.153503,212.682266 135.557571,216.511230 
	C138.711411,220.058746 142.917862,219.631287 147.612717,217.798386 
	C148.404877,217.197372 149.197037,216.596375 150.644882,215.795807 
	C157.681076,209.718552 159.442993,201.070251 162.000580,192.771667 
	C162.628647,190.733749 163.980865,188.919006 165.716599,186.938431 
	C167.531128,185.966309 169.345657,184.994171 171.160187,184.022049 
	C170.981552,183.609375 170.802933,183.196686 170.624298,182.783997 
	C168.413971,183.531555 166.203629,184.279129 163.937515,184.191986 
	C165.396561,176.934845 166.855621,169.677704 168.311462,162.436523 
	C162.181274,159.708649 158.939056,161.062729 156.877792,167.001694 
	C155.363876,171.363586 153.686417,175.668716 151.816330,180.249481 
	C151.816330,180.249481 151.853027,180.612534 151.335724,180.916733 
M65.801773,184.407822 
	C65.778137,185.571014 65.733948,186.734207 65.734665,187.897385 
	C65.736916,191.572311 66.771729,194.522217 70.992081,195.111206 
	C75.112495,195.686249 77.293922,194.118210 78.426079,189.840652 
	C79.760262,184.799789 82.098877,180.024765 84.001984,175.134476 
	C84.386024,175.275330 84.770065,175.416168 85.154114,175.557007 
	C84.510872,179.295074 83.650368,183.011505 83.275673,186.776291 
	C82.723625,192.323059 85.970734,195.901031 90.472580,195.103592 
	C94.366417,194.413864 98.632629,188.614059 98.541565,184.134003 
	C98.126724,183.718506 97.711884,183.303009 97.297043,182.887512 
	C96.599876,184.759933 95.902718,186.632370 95.205551,188.504791 
	C94.458817,188.034164 93.712082,187.563538 92.965340,187.092911 
	C94.549011,180.719391 96.306526,174.381058 97.607887,167.950394 
	C97.986565,166.079163 97.678757,162.755783 96.597427,162.194489 
	C94.739464,161.230072 91.830444,161.347717 89.730721,162.074524 
	C87.876831,162.716263 86.065834,164.542480 85.039787,166.311844 
	C82.218483,171.177124 79.833443,176.294556 77.235901,181.291473 
	C76.897224,181.942993 76.324699,182.472931 75.860481,183.059174 
	C75.508957,182.879654 75.157433,182.700119 74.805908,182.520584 
	C76.993843,175.749207 79.181778,168.977844 81.373863,162.193604 
	C75.446960,159.538223 72.000580,160.889603 69.925049,166.756271 
	C68.217461,171.582932 66.436913,176.383774 64.125687,181.655060 
	C62.431076,183.857956 60.736465,186.060852 59.041859,188.263733 
	C58.428082,187.954742 57.814304,187.645752 57.200527,187.336761 
	C58.856567,180.104706 60.363754,172.834305 62.213573,165.652161 
	C63.827309,159.386627 66.032310,153.271759 67.598648,146.996094 
	C69.153557,140.766205 65.872650,137.291290 59.746365,139.190491 
	C56.513645,140.192688 53.223949,142.707230 51.180016,145.448593 
	C48.148376,149.514694 45.998608,154.296326 43.868462,158.954025 
	C42.656277,161.604553 41.476528,162.966187 38.200191,163.157654 
	C26.418961,163.846191 16.545879,173.721588 15.881892,184.843674 
	C15.639099,188.910553 16.221619,192.678558 20.403866,194.469833 
	C24.454889,196.204910 28.603888,195.512466 31.369053,192.176895 
	C34.616432,188.259628 37.403538,183.875549 39.835640,179.393021 
	C42.018456,175.369949 43.449600,170.939056 45.316502,166.436874 
	C47.532490,167.015915 49.358513,167.493073 50.669659,167.835678 
	C49.639217,175.389389 48.106670,182.257614 47.942238,189.158432 
	C47.801075,195.082657 53.633232,197.539169 58.092136,193.566788 
	C60.949173,191.021500 62.758186,187.299835 65.801773,184.407822 
M188.469620,198.046021 
	C197.666611,195.958694 201.345810,187.119339 196.504456,178.208542 
	C198.567566,176.947052 200.643570,175.677673 202.719559,174.408310 
	C202.629425,174.187042 202.539307,173.965775 202.449173,173.744507 
	C200.423309,174.232544 198.397446,174.720581 196.262177,175.234970 
	C195.654312,171.832489 193.399384,168.214554 197.404678,163.862335 
	C197.877441,166.586655 198.137070,168.082840 198.396698,169.579025 
	C198.911942,169.602585 199.427185,169.626129 199.942429,169.649689 
	C199.942429,167.367981 200.786697,163.701950 199.772400,163.083359 
	C197.425217,161.651871 193.952576,160.738953 191.346481,161.353897 
	C186.868210,162.410614 184.659988,167.490875 185.823990,173.267075 
	C186.885132,178.532715 187.245056,183.022858 183.727371,187.968201 
	C180.292984,192.796402 182.334656,196.519211 188.469620,198.046021 
M116.500000,145.965012 
	C102.337746,145.964844 88.175339,145.934204 74.013481,146.009460 
	C72.521713,146.017380 71.033249,146.648727 69.543251,146.990845 
	C69.654732,147.496475 69.766212,148.002121 69.877693,148.507751 
	C106.019753,148.507751 142.161804,148.507751 178.303864,148.507751 
	C178.411957,147.946625 178.520050,147.385498 178.628143,146.824356 
	C177.079559,146.537903 175.531723,146.006912 173.982285,146.002182 
	C155.154984,145.944839 136.327469,145.964996 116.500000,145.965012 
M176.752441,161.183105 
	C174.894257,163.303558 173.036087,165.423996 171.177917,167.544449 
	C180.957458,164.366821 188.262115,158.471542 191.362228,148.626663 
	C191.975754,146.678299 190.549683,143.524170 189.090668,141.708282 
	C188.278351,140.697281 184.823639,140.489151 183.695984,141.371429 
	C182.133499,142.593903 180.348145,145.711807 180.914261,147.094269 
	C183.269272,152.845215 179.944748,156.538132 176.752441,161.183105 
M41.278332,148.875168 
	C43.290863,148.448868 45.303391,148.022568 47.315918,147.596268 
	C47.204975,147.176224 47.094032,146.756180 46.983089,146.336136 
	C37.988815,146.336136 28.994543,146.336136 19.926777,146.336136 
	C20.025675,147.222458 20.061567,148.139694 20.137852,148.143066 
	C26.862123,148.440292 33.589504,148.667191 41.278332,148.875168 
M201.956543,145.949158 
	C199.315155,146.713364 195.648758,144.125778 193.139191,148.936157 
	C196.470749,148.936157 198.888031,148.962036 201.304474,148.928497 
	C203.490829,148.898163 204.426636,148.144211 201.956543,145.949158 
z"/>
<path fill="#FAFAFA" opacity="1.000000" stroke="none" 
	d="
M77.445824,41.993362 
	C77.086029,39.681747 76.726234,37.370132 76.796387,34.365341 
	C77.319405,32.490856 77.412483,31.309553 77.664230,29.848778 
	C100.953911,15.263247 123.632637,15.875789 145.933212,31.589474 
	C145.634460,31.019468 145.335709,30.449461 145.018311,29.496704 
	C144.554642,27.073889 144.109589,25.033825 143.605362,22.722469 
	C143.027145,24.255157 142.529770,25.573532 141.719849,26.777721 
	C138.862213,25.002327 136.317139,23.341122 133.812836,21.310562 
	C133.173279,20.847166 132.492935,20.753128 131.427155,20.562780 
	C125.120232,20.313017 123.108734,16.842199 123.001823,11.380324 
	C122.745750,13.571141 122.489677,15.761958 122.293701,17.438633 
	C113.715263,17.438633 105.495712,17.438633 97.355827,17.438633 
	C96.737549,14.314661 96.258163,11.892457 95.817665,9.110729 
	C95.237701,6.167470 94.618851,3.583735 94.000000,0.999999 
	C104.354225,1.000000 114.708458,1.000000 125.529587,1.403580 
	C125.137314,4.385449 124.278145,6.963739 123.129913,10.409451 
	C127.599136,7.360569 128.737305,4.800529 128.000000,1.000000 
	C139.020889,1.000000 150.041794,1.000000 161.531342,1.000000 
	C162.871475,5.318527 163.742950,9.637055 164.323120,14.498659 
	C164.308945,15.694810 164.586060,16.347885 164.863159,17.000961 
	C165.893692,20.987947 166.924225,24.974928 167.967300,29.688959 
	C167.262222,31.427099 166.544601,32.438187 165.510132,33.429241 
	C163.801941,34.275059 162.410614,35.140911 160.620529,36.002220 
	C156.504517,36.093777 156.736694,34.167244 157.716019,31.500799 
	C158.405914,29.622421 158.605118,27.563828 159.023407,25.585699 
	C158.327988,25.407942 157.632568,25.230183 156.937149,25.052425 
	C156.291428,26.701559 155.645721,28.350693 155.000000,29.999912 
	C155.000000,30.000000 155.000000,30.000229 154.651154,30.006386 
	C153.527267,32.029781 152.752228,34.047020 151.604370,36.060730 
	C149.652237,35.415394 148.072922,34.773594 147.111420,34.382851 
	C150.638504,43.522007 147.615082,52.849525 147.591568,62.018295 
	C147.123138,62.189594 146.884018,62.341309 146.644882,62.493019 
	C147.030334,62.662525 147.415802,62.832035 147.877960,63.331970 
	C147.897522,64.107513 147.840393,64.552635 147.383438,64.999359 
	C146.185684,65.049706 145.387772,65.098465 144.327911,64.993614 
	C143.254471,63.707512 142.442963,62.575016 141.825821,61.339058 
	C142.027130,61.051178 142.034058,60.866764 142.040985,60.682346 
	C141.869370,60.899059 141.697754,61.115772 141.340210,61.343018 
	C141.154312,61.353546 140.999832,61.014690 140.866089,60.727322 
	C139.116531,59.612389 137.500748,58.784824 135.893951,57.707466 
	C135.792908,57.133427 135.773315,56.803806 135.879379,56.108025 
	C135.576508,54.998158 135.238403,54.249077 134.900299,53.499996 
	C134.599487,54.002743 134.298676,54.505489 133.654160,54.931107 
	C129.560318,53.215775 125.916527,50.571568 122.036575,50.161434 
	C115.225906,49.441498 108.270584,50.089844 101.077438,50.245422 
	C100.519226,50.857697 100.259430,51.389626 99.897537,52.099312 
	C99.795433,52.277061 99.401390,52.163853 99.006714,52.094421 
	C93.903786,50.698589 89.157326,52.514885 87.620239,56.089420 
	C87.167030,56.405384 87.055061,56.732491 86.986717,57.029125 
	C87.030342,56.998653 87.094299,56.913582 87.094299,56.913582 
	C84.628433,56.498840 82.760887,61.191231 80.140671,57.038025 
	C79.950775,55.549164 79.560867,54.773937 79.170975,53.998711 
	C78.735695,50.950359 78.300415,47.902004 78.125481,44.300259 
	C78.072487,43.162361 77.759155,42.577862 77.445824,41.993362 
M137.939331,19.832754 
	C137.792465,19.584251 137.695496,19.215656 137.482208,19.127037 
	C137.324936,19.061695 137.015808,19.361898 136.774338,19.499228 
	C137.016068,19.637060 137.257797,19.774895 137.939331,19.832754 
M151.580704,25.516275 
	C151.580704,25.516275 151.477661,25.576124 151.580704,25.516275 
M125.419205,23.483875 
	C125.419205,23.483875 125.522583,23.423901 125.419205,23.483875 
z"/>
<path fill="#FAFAFA" opacity="1.000000" stroke="none" 
	d="
M70.126526,33.954296 
	C71.108063,34.911301 72.605469,35.702526 72.976089,36.855850 
	C74.170563,40.572945 74.949867,44.423447 75.626305,48.630943 
	C75.239868,49.667206 75.116348,50.295048 74.992828,50.922890 
	C73.994667,51.292557 72.996506,51.662228 71.998352,52.031898 
	C72.135376,52.351810 72.272400,52.671719 72.704361,53.470932 
	C73.135796,56.510975 72.540161,59.475140 76.341858,60.016232 
	C76.467422,62.580803 76.634735,65.144173 76.708366,67.710236 
	C76.808517,71.200752 75.252419,72.491333 71.387024,70.675377 
	C70.432739,68.674202 69.960785,67.197403 69.235672,64.928444 
	C68.117859,66.293877 67.393883,67.178215 66.669914,68.062561 
	C66.082077,67.773972 65.504402,67.259033 64.904823,67.232124 
	C59.478600,66.988617 54.048550,66.830475 48.043518,66.627884 
	C47.211262,74.275513 48.847263,82.347504 51.469692,90.696701 
	C51.646767,91.721954 52.121159,92.303368 52.595554,92.884781 
	C52.857231,93.097420 52.991814,93.372307 52.679386,94.246246 
	C51.339119,95.187263 50.318775,95.591476 49.298431,95.995697 
	C41.934895,80.108490 41.274582,63.828568 46.460495,47.213921 
	C47.149418,45.006752 47.922161,42.825748 49.164742,40.262283 
	C49.583473,39.202091 49.493546,38.512245 49.403618,37.822399 
	C52.278084,27.581621 54.814663,17.319399 53.060341,6.511502 
	C52.810143,4.970111 53.504944,3.275331 53.381187,1.325771 
	C65.354225,1.000000 77.708458,1.000000 90.548965,1.292420 
	C92.020866,4.048391 93.006493,6.511941 93.978798,9.387228 
	C95.984451,17.242842 95.827164,16.984198 88.784531,20.137356 
	C83.705719,22.411264 79.047188,25.623882 74.002197,28.107216 
	C70.941978,29.766167 68.080750,31.735718 65.219528,33.705269 
	C65.470451,34.097961 65.721375,34.490658 65.972298,34.883350 
	C67.357040,34.573666 68.741783,34.263981 70.126526,33.954296 
M62.068554,33.140812 
	C61.038227,32.038620 59.506855,31.101477 59.078465,29.801001 
	C58.086353,26.789242 57.627831,23.601713 56.895058,20.218102 
	C53.646183,25.888742 54.339100,32.494286 58.589535,35.747211 
	C59.489674,36.436104 61.211311,36.051582 62.554455,36.161629 
	C62.609837,35.262203 62.665222,34.362782 62.068554,33.140812 
M66.728897,52.177761 
	C66.619072,52.026279 66.509247,51.874798 66.399422,51.723316 
	C66.421097,51.933128 66.442772,52.142937 66.728897,52.177761 
z"/>
<path fill="#FBFBFB" opacity="1.000000" stroke="none" 
	d="
M227.000000,71.531342 
	C226.292801,70.012672 224.984177,68.029358 224.970871,66.037399 
	C224.828262,44.669819 224.890228,23.300873 224.948059,1.466150 
	C228.043427,0.389348 226.965149,2.700494 226.967682,3.969905 
	C227.012360,26.334097 227.000000,48.698402 227.000000,71.531342 
z"/>
<path fill="#F9F9F9" opacity="1.000000" stroke="none" 
	d="
M127.666672,1.000000 
	C128.737305,4.800529 127.599136,7.360569 123.129913,10.409451 
	C124.278145,6.963739 125.137314,4.385449 125.998245,1.403580 
	C126.444443,1.000000 126.888893,1.000000 127.666672,1.000000 
z"/>
<path fill="#F9F9F9" opacity="1.000000" stroke="none" 
	d="
M93.992111,8.975492 
	C93.006493,6.511941 92.020866,4.048391 91.017624,1.292420 
	C91.750000,1.000000 92.500000,1.000000 93.625000,0.999999 
	C94.618851,3.583735 95.237701,6.167470 95.527649,8.988243 
	C94.796532,9.142016 94.394318,9.058754 93.992111,8.975492 
z"/>
<path fill="#F9F9F9" opacity="1.000000" stroke="none" 
	d="
M99.999634,51.921562 
	C100.259430,51.389626 100.519226,50.857697 101.198990,50.604332 
	C103.196617,51.133060 104.819832,51.755665 106.344055,51.569176 
	C113.095444,50.743122 119.721657,50.575191 126.038025,54.104500 
	C126.775681,54.446400 127.477409,54.452156 128.511139,54.604225 
	C131.190399,55.819447 133.537674,56.888355 135.884949,57.957260 
	C137.500748,58.784824 139.116531,59.612389 140.526703,60.683453 
	C141.051056,63.380787 142.231705,65.800484 142.420700,68.295296 
	C142.866165,74.175362 142.838913,80.091232 142.972427,86.397629 
	C142.915939,88.154266 142.889908,89.505898 142.539795,90.944473 
	C141.908173,91.780006 141.600662,92.528618 141.293137,93.277222 
	C141.839691,93.437714 142.386246,93.598206 142.932800,93.758705 
	C143.006699,92.883942 143.080597,92.009171 143.407623,90.894043 
	C144.109024,89.107231 144.557297,87.560783 145.023590,85.560135 
	C145.041595,82.510292 145.041595,79.914642 145.041595,77.498474 
	C151.035736,76.061035 151.803818,76.591599 151.051590,81.760216 
	C150.702133,84.161407 149.848923,86.555580 148.840820,88.779190 
	C147.294174,92.190750 145.416656,95.452293 143.572906,98.981659 
	C142.322006,98.698669 140.837540,98.362831 138.950043,97.935814 
	C138.776520,101.241287 138.624847,104.130127 138.473206,107.018967 
	C138.208603,107.302460 137.944000,107.585945 137.101166,107.974129 
	C136.354904,108.721420 136.186890,109.364021 136.018890,110.006615 
	C129.702042,124.688614 111.591805,129.844482 100.654114,119.715263 
	C101.043869,119.055473 101.041862,118.866676 101.039864,118.677887 
	C100.854813,118.882202 100.669762,119.086517 100.484711,119.290833 
	C96.409348,119.042137 90.452599,113.237251 88.955986,107.814285 
	C88.092239,104.684509 87.544899,101.467400 87.031700,99.103012 
	C84.522537,98.579376 82.524796,98.162460 80.876953,97.342865 
	C83.352188,95.916359 87.128235,98.055771 86.821609,92.341537 
	C84.629944,93.348511 82.438286,94.355484 80.246620,95.362450 
	C79.208176,92.993797 78.223831,90.599442 77.114426,88.264511 
	C76.203171,86.346626 74.697304,84.596909 74.259781,82.596619 
	C73.684677,79.967377 73.955658,77.075912 77.573654,76.626610 
	C81.388054,76.152908 81.074593,78.889931 81.178238,81.456886 
	C81.276947,83.901711 81.784546,86.330040 82.455772,89.211182 
	C83.152817,89.662079 83.506477,89.667419 83.860130,89.672760 
	C83.768143,89.287277 83.676147,88.901787 83.584152,88.516304 
	C82.532303,77.985130 82.356636,67.555466 87.124298,57.307800 
	C87.094299,56.913582 87.030342,56.998653 87.282715,57.098541 
	C87.677216,56.832474 87.819351,56.466518 87.961479,56.100563 
	C89.157326,52.514885 93.903786,50.698589 99.113541,52.156868 
	C99.743240,52.166351 99.871437,52.043957 99.999634,51.921562 
M95.529816,83.817513 
	C95.692314,83.466698 95.854813,83.115875 96.398163,82.372902 
	C96.922821,82.251678 97.447487,82.130455 98.629280,82.405197 
	C101.941612,86.448219 104.291275,81.281853 107.300301,81.511589 
	C104.535324,79.233772 102.959656,74.091957 97.204048,77.927994 
	C96.465523,77.942032 95.726990,77.956078 94.719711,77.548714 
	C94.173363,77.630493 93.627022,77.712273 92.502388,77.768097 
	C92.309540,77.774490 92.116684,77.780884 91.588844,77.412132 
	C91.050896,77.632118 90.512947,77.852104 89.522072,78.521309 
	C90.682968,80.078773 91.843864,81.636238 93.082329,83.730553 
	C93.717056,83.841644 94.351776,83.952736 95.529816,83.817513 
M135.150787,81.887177 
	C137.755280,80.552933 136.795303,79.593605 134.803940,78.798523 
	C132.419205,77.846390 130.016876,76.938423 126.683601,75.647964 
	C126.831856,78.595505 126.960625,81.155540 127.089394,83.715584 
	C129.535065,83.180344 131.980743,82.645096 135.150787,81.887177 
M116.845329,107.045685 
	C112.883041,107.405441 108.920746,107.765198 104.958458,108.124954 
	C105.029205,108.597008 105.099945,109.069061 105.170692,109.541115 
	C108.042564,110.082031 110.912254,111.032532 113.786911,111.047806 
	C116.620331,111.062866 119.458778,110.130775 123.556511,109.384491 
	C120.920120,108.375389 119.312843,107.760178 116.845329,107.045685 
M103.802620,71.404556 
	C103.798409,71.790421 103.790619,72.176460 103.810120,72.561119 
	C103.810616,72.571007 104.249504,72.576454 104.250313,72.565971 
	C104.279915,72.181870 104.281815,71.795647 103.802620,71.404556 
M133.524582,59.645512 
	C133.471786,59.847923 133.418991,60.050339 133.366211,60.252750 
	C133.495285,60.122730 133.624359,59.992714 133.524582,59.645512 
M135.475525,71.354431 
	C135.528305,71.152039 135.581070,70.949646 135.633850,70.747246 
	C135.504791,70.877258 135.375748,71.007271 135.475525,71.354431 
M119.580574,97.516121 
	C119.580574,97.516121 119.477623,97.575821 119.580574,97.516121 
M100.516167,86.419235 
	C100.516167,86.419235 100.576019,86.522293 100.516167,86.419235 
M116.516060,83.419250 
	C116.516060,83.419250 116.575768,83.522202 116.516060,83.419250 
M138.483948,72.580544 
	C138.483948,72.580544 138.424301,72.477623 138.483948,72.580544 
z"/>
<path fill="#060606" opacity="1.000000" stroke="none" 
	d="
M143.002884,85.992622 
	C142.838913,80.091232 142.866165,74.175362 142.420700,68.295296 
	C142.231705,65.800484 141.051056,63.380787 140.660461,60.970821 
	C140.999832,61.014690 141.154312,61.353546 141.393646,61.344597 
	C141.632965,61.335651 141.631454,61.442528 141.631454,61.442528 
	C142.442963,62.575016 143.254471,63.707512 144.440247,65.308807 
	C145.378296,66.467209 145.942078,67.156792 146.961426,68.403618 
	C147.324936,66.897141 147.554108,65.947449 147.783264,64.997757 
	C147.840393,64.552635 147.897522,64.107513 147.951111,63.082596 
	C147.905334,62.334770 147.863098,62.166740 147.820877,61.998714 
	C147.615082,52.849525 150.638504,43.522007 147.111420,34.382851 
	C148.072922,34.773594 149.652237,35.415394 151.570648,36.446175 
	C151.288940,42.194004 150.522949,47.542717 150.147675,52.918701 
	C150.051895,54.291031 150.981262,56.781029 151.811646,56.952133 
	C153.492950,57.298588 155.906357,56.953499 157.128159,55.880436 
	C158.403046,54.760754 158.962692,52.500896 159.252197,50.648418 
	C160.010773,45.794361 160.451736,40.890675 161.019272,36.006763 
	C162.410614,35.140911 163.801941,34.275059 165.580688,33.762444 
	C187.294662,68.345207 170.685425,107.309669 147.996384,119.889328 
	C144.726776,117.490471 147.760681,109.386116 140.011566,111.032188 
	C139.708832,109.767525 139.406082,108.502861 138.788269,107.128586 
	C138.624847,104.130127 138.776520,101.241287 138.950043,97.935814 
	C140.837540,98.362831 142.322006,98.698669 143.572906,98.981659 
	C145.416656,95.452293 147.294174,92.190750 148.840820,88.779190 
	C149.848923,86.555580 150.702133,84.161407 151.051590,81.760216 
	C151.803818,76.591599 151.035736,76.061035 145.041595,77.498474 
	C145.041595,79.914642 145.041595,82.510292 144.696564,85.688248 
	C143.901978,86.177910 143.452438,86.085266 143.002884,85.992622 
z"/>
<path fill="#F5F5F5" opacity="1.000000" stroke="none" 
	d="
M141.997879,192.842407 
	C139.912964,190.229004 137.828033,187.615601 135.835083,185.117477 
	C134.596893,186.915939 133.144699,190.071182 130.757629,192.156021 
	C128.903214,193.775635 125.263870,195.394348 123.539307,194.594742 
	C121.456581,193.629089 119.523308,190.169556 119.381500,187.683517 
	C119.152214,183.663666 120.437469,179.557434 121.083138,175.487671 
	C120.690331,175.345261 120.297523,175.202850 119.904724,175.060440 
	C117.926529,180.293594 115.618538,185.432220 114.082352,190.792053 
	C113.000099,194.568069 110.703728,195.394379 107.444298,195.171646 
	C104.204376,194.950272 102.335060,193.174820 101.800781,189.908813 
	C100.273056,180.570068 103.074661,172.081421 107.051109,163.901886 
	C108.688454,160.533890 112.867828,160.114288 117.342972,162.242188 
	C115.231750,168.750793 113.130043,175.230042 111.028343,181.709290 
	C111.441277,181.897507 111.854218,182.085739 112.267159,182.273956 
	C112.858360,181.274490 113.499512,180.300827 114.031937,179.270981 
	C116.085930,175.297974 117.891632,171.176025 120.223015,167.375259 
	C121.481979,165.322800 123.336624,163.205460 125.439034,162.225494 
	C127.416725,161.303650 130.544449,161.017441 132.270966,162.009521 
	C133.493988,162.712296 133.849396,166.119064 133.496201,168.125961 
	C132.724808,172.509018 131.137604,176.741760 130.122513,181.091629 
	C129.649857,183.117065 129.733475,185.272308 130.110214,187.560043 
	C135.085632,182.928207 137.870682,177.128738 139.894165,170.887604 
	C140.301758,169.630447 140.502563,168.307617 140.875931,167.037781 
	C143.005783,159.794235 145.165482,158.852707 152.441452,161.934906 
	C150.958710,169.310318 149.477280,176.679230 148.007172,184.879517 
	C147.853378,188.353241 148.555389,191.646957 143.876038,190.675323 
	C143.419662,190.580566 142.631851,192.081940 141.997879,192.842407 
M149.272385,165.823029 
	C149.381790,165.974167 149.491196,166.125290 149.600601,166.276428 
	C149.579071,166.067108 149.557526,165.857803 149.272385,165.823029 
M137.582687,182.516541 
	C137.582687,182.516541 137.476089,182.578705 137.582687,182.516541 
z"/>
<path fill="#F4F4F4" opacity="1.000000" stroke="none" 
	d="
M65.037003,184.105515 
	C62.758186,187.299835 60.949173,191.021500 58.092136,193.566788 
	C53.633232,197.539169 47.801075,195.082657 47.942238,189.158432 
	C48.106670,182.257614 49.639217,175.389389 50.669659,167.835678 
	C49.358513,167.493073 47.532490,167.015915 45.316502,166.436874 
	C43.449600,170.939056 42.018456,175.369949 39.835640,179.393021 
	C37.403538,183.875549 34.616432,188.259628 31.369053,192.176895 
	C28.603888,195.512466 24.454889,196.204910 20.403866,194.469833 
	C16.221619,192.678558 15.639099,188.910553 15.881892,184.843674 
	C16.545879,173.721588 26.418961,163.846191 38.200191,163.157654 
	C41.476528,162.966187 42.656277,161.604553 43.868462,158.954025 
	C45.998608,154.296326 48.148376,149.514694 51.180016,145.448593 
	C53.223949,142.707230 56.513645,140.192688 59.746365,139.190491 
	C65.872650,137.291290 69.153557,140.766205 67.598648,146.996094 
	C66.032310,153.271759 63.827309,159.386627 62.213573,165.652161 
	C60.363754,172.834305 58.856567,180.104706 57.200527,187.336761 
	C57.814304,187.645752 58.428082,187.954742 59.041859,188.263733 
	C60.736465,186.060852 62.431076,183.857956 64.487816,181.907547 
	C64.912300,182.808533 64.974655,183.457016 65.037003,184.105515 
M39.904591,168.913254 
	C40.099422,168.045609 40.294258,167.177948 40.512306,166.206924 
	C30.540384,166.901535 23.906883,171.762131 22.336704,179.816589 
	C21.947094,181.815155 22.457668,185.328842 23.691906,185.975662 
	C25.349642,186.844421 28.369495,186.112228 30.324106,185.120346 
	C32.088070,184.225235 33.531429,182.235565 34.537842,180.409821 
	C36.441891,176.955673 37.931232,173.272919 39.904591,168.913254 
M48.791939,163.903488 
	C50.154579,163.441818 52.453537,163.292664 52.728783,162.468033 
	C54.596119,156.873611 56.036339,151.136642 57.614574,145.445724 
	C51.458931,149.799683 49.033939,156.176117 46.977043,162.748016 
	C46.916046,162.942886 47.630291,163.380402 48.791939,163.903488 
z"/>
<path fill="#F9F9F9" opacity="1.000000" stroke="none" 
	d="
M140.015778,111.395355 
	C147.760681,109.386116 144.726776,117.490471 147.996384,119.889328 
	C170.685425,107.309669 187.294662,68.345207 165.897537,33.782478 
	C166.544601,32.438187 167.262222,31.427099 168.051514,30.043268 
	C187.044083,54.540260 184.033859,93.624084 160.273849,115.923538 
	C151.223907,124.417160 139.934006,130.569885 129.423035,137.418152 
	C127.560394,138.631729 124.504921,138.014481 122.000275,138.242676 
	C122.277191,135.249084 121.490715,131.430069 123.044861,129.427902 
	C126.659332,124.771423 131.443283,121.032188 135.666382,116.833786 
	C137.242096,115.267281 138.575882,113.457420 140.015778,111.395355 
z"/>
<path fill="#F4F4F4" opacity="1.000000" stroke="none" 
	d="
M65.419388,184.256668 
	C64.974655,183.457016 64.912300,182.808533 64.769318,181.678040 
	C66.436913,176.383774 68.217461,171.582932 69.925049,166.756271 
	C72.000580,160.889603 75.446960,159.538223 81.373863,162.193604 
	C79.181778,168.977844 76.993843,175.749207 74.805908,182.520584 
	C75.157433,182.700119 75.508957,182.879654 75.860481,183.059174 
	C76.324699,182.472931 76.897224,181.942993 77.235901,181.291473 
	C79.833443,176.294556 82.218483,171.177124 85.039787,166.311844 
	C86.065834,164.542480 87.876831,162.716263 89.730721,162.074524 
	C91.830444,161.347717 94.739464,161.230072 96.597427,162.194489 
	C97.678757,162.755783 97.986565,166.079163 97.607887,167.950394 
	C96.306526,174.381058 94.549011,180.719391 92.965340,187.092911 
	C93.712082,187.563538 94.458817,188.034164 95.205551,188.504791 
	C95.902718,186.632370 96.599876,184.759933 97.297043,182.887512 
	C97.711884,183.303009 98.126724,183.718506 98.541565,184.134003 
	C98.632629,188.614059 94.366417,194.413864 90.472580,195.103592 
	C85.970734,195.901031 82.723625,192.323059 83.275673,186.776291 
	C83.650368,183.011505 84.510872,179.295074 85.154114,175.557007 
	C84.770065,175.416168 84.386024,175.275330 84.001984,175.134476 
	C82.098877,180.024765 79.760262,184.799789 78.426079,189.840652 
	C77.293922,194.118210 75.112495,195.686249 70.992081,195.111206 
	C66.771729,194.522217 65.736916,191.572311 65.734665,187.897385 
	C65.733948,186.734207 65.778137,185.571014 65.419388,184.256668 
z"/>
<path fill="#F5F5F5" opacity="1.000000" stroke="none" 
	d="
M165.000153,187.001663 
	C163.980865,188.919006 162.628647,190.733749 162.000580,192.771667 
	C159.442993,201.070251 157.681076,209.718552 150.052429,215.771820 
	C148.642944,215.398453 147.825897,215.049072 147.008850,214.699692 
	C147.004745,215.739243 147.000656,216.778809 146.996552,217.818359 
	C142.917862,219.631287 138.711411,220.058746 135.557571,216.511230 
	C132.153503,212.682266 132.606812,207.842453 135.408478,204.081696 
	C138.312393,200.183655 142.324493,197.111176 146.238770,193.341217 
	C152.790100,192.088593 154.146317,187.365433 154.770905,182.314407 
	C154.851395,181.663452 153.024948,180.776672 152.081848,179.999146 
	C153.686417,175.668716 155.363876,171.363586 156.877792,167.001694 
	C158.939056,161.062729 162.181274,159.708649 168.311462,162.436523 
	C166.855621,169.677704 165.396561,176.934845 164.075577,184.864380 
	C164.475815,186.025070 164.737991,186.513367 165.000153,187.001663 
M149.968094,194.807709 
	C144.923447,198.154999 139.931885,201.653961 138.751160,208.115524 
	C138.443878,209.797058 139.466278,211.721558 139.877960,213.534470 
	C141.579834,212.766769 144.209076,212.440063 144.820709,211.153900 
	C147.278000,205.986603 149.110764,200.522308 151.593643,194.981125 
	C151.272690,194.866364 150.951736,194.751587 149.968094,194.807709 
z"/>
<path fill="#F2F2F2" opacity="1.000000" stroke="none" 
	d="
M188.065948,198.040665 
	C182.334656,196.519211 180.292984,192.796402 183.727371,187.968201 
	C187.245056,183.022858 186.885132,178.532715 185.823990,173.267075 
	C184.659988,167.490875 186.868210,162.410614 191.346481,161.353897 
	C193.952576,160.738953 197.425217,161.651871 199.772400,163.083359 
	C200.786697,163.701950 199.942429,167.367981 199.942429,169.649689 
	C199.427185,169.626129 198.911942,169.602585 198.396698,169.579025 
	C198.137070,168.082840 197.877441,166.586655 197.404678,163.862335 
	C193.399384,168.214554 195.654312,171.832489 196.262177,175.234970 
	C198.397446,174.720581 200.423309,174.232544 202.449173,173.744507 
	C202.539307,173.965775 202.629425,174.187042 202.719559,174.408310 
	C200.643570,175.677673 198.567566,176.947052 196.504456,178.208542 
	C201.345810,187.119339 197.666611,195.958694 188.065948,198.040665 
z"/>
<path fill="#F9F9F9" opacity="1.000000" stroke="none" 
	d="
M49.352318,96.328629 
	C50.318775,95.591476 51.339119,95.187263 52.667587,94.481628 
	C56.112026,99.064072 59.248344,103.947937 62.176582,109.295235 
	C61.963894,109.946594 61.959282,110.134514 61.954674,110.322441 
	C62.139484,110.116508 62.324291,109.910583 62.509094,109.704651 
	C68.567108,114.732742 74.625122,119.760834 80.932991,124.996292 
	C84.117531,121.048012 86.678719,117.872589 89.239906,114.697166 
	C89.713043,114.774330 90.186180,114.851501 90.659325,114.928665 
	C91.179321,121.324188 91.699326,127.719711 92.219330,134.115234 
	C91.745651,134.454361 91.271980,134.793503 90.798309,135.132629 
	C73.273354,126.507828 58.043125,115.298157 49.352318,96.328629 
M82.413139,127.483032 
	C82.413139,127.483032 82.522896,127.417824 82.413139,127.483032 
z"/>
<path fill="#EAEAEA" opacity="1.000000" stroke="none" 
	d="
M117.000000,145.964996 
	C136.327469,145.964996 155.154984,145.944839 173.982285,146.002182 
	C175.531723,146.006912 177.079559,146.537903 178.628143,146.824356 
	C178.520050,147.385498 178.411957,147.946625 178.303864,148.507751 
	C142.161804,148.507751 106.019753,148.507751 69.877693,148.507751 
	C69.766212,148.002121 69.654732,147.496475 69.543251,146.990845 
	C71.033249,146.648727 72.521713,146.017380 74.013481,146.009460 
	C88.175339,145.934204 102.337746,145.964844 117.000000,145.964996 
z"/>
<path fill="#181818" opacity="1.000000" stroke="none" 
	d="
M93.978798,9.387228 
	C94.394318,9.058754 94.796532,9.142016 95.488754,9.347766 
	C96.258163,11.892457 96.737549,14.314661 97.355827,17.438633 
	C105.495712,17.438633 113.715263,17.438633 122.293701,17.438633 
	C122.489677,15.761958 122.745750,13.571141 123.001823,11.380324 
	C123.108734,16.842199 125.120232,20.313017 131.654572,20.726421 
	C132.768951,21.217550 133.270508,21.448732 133.772049,21.679916 
	C136.317139,23.341122 138.862213,25.002327 141.829254,27.069565 
	C143.179779,28.276882 144.108368,29.078169 145.036957,29.879456 
	C145.335709,30.449461 145.634460,31.019468 145.933212,31.589474 
	C123.632637,15.875789 100.953911,15.263247 77.457977,30.015240 
	C76.835579,30.678310 76.578072,30.895443 76.320564,31.112576 
	C75.640274,30.844391 74.959984,30.576206 74.088028,29.773640 
	C74.077698,28.995024 74.179306,28.721210 74.201202,28.417816 
	C79.047188,25.623882 83.705719,22.411264 88.784531,20.137356 
	C95.827164,16.984198 95.984451,17.242842 93.978798,9.387228 
z"/>
<path fill="#F1F1F1" opacity="1.000000" stroke="none" 
	d="
M176.963837,160.884155 
	C179.944748,156.538132 183.269272,152.845215 180.914261,147.094269 
	C180.348145,145.711807 182.133499,142.593903 183.695984,141.371429 
	C184.823639,140.489151 188.278351,140.697281 189.090668,141.708282 
	C190.549683,143.524170 191.975754,146.678299 191.362228,148.626663 
	C188.262115,158.471542 180.957458,164.366821 171.177917,167.544449 
	C173.036087,165.423996 174.894257,163.303558 176.963837,160.884155 
z"/>
<path fill="#E7E7E7" opacity="1.000000" stroke="none" 
	d="
M40.797501,148.887039 
	C33.589504,148.667191 26.862123,148.440292 20.137852,148.143066 
	C20.061567,148.139694 20.025675,147.222458 19.926777,146.336136 
	C28.994543,146.336136 37.988815,146.336136 46.983089,146.336136 
	C47.094032,146.756180 47.204975,147.176224 47.315918,147.596268 
	C45.303391,148.022568 43.290863,148.448868 40.797501,148.887039 
z"/>
<path fill="#F3F3F3" opacity="1.000000" stroke="none" 
	d="
M151.949097,180.124313 
	C153.024948,180.776672 154.851395,181.663452 154.770905,182.314407 
	C154.146317,187.365433 152.790100,192.088593 146.300644,193.006500 
	C144.911102,193.003357 143.846542,192.998550 142.389938,192.918076 
	C142.631851,192.081940 143.419662,190.580566 143.876038,190.675323 
	C148.555389,191.646957 147.853378,188.353241 148.029205,185.301575 
	C148.869278,184.071472 149.698639,183.250717 150.924652,182.446228 
	C151.498535,181.845825 151.675781,181.229187 151.853027,180.612534 
	C151.853027,180.612534 151.816330,180.249481 151.949097,180.124313 
z"/>
<path fill="#DADADA" opacity="1.000000" stroke="none" 
	d="
M202.384766,146.011932 
	C204.426636,148.144211 203.490829,148.898163 201.304474,148.928497 
	C198.888031,148.962036 196.470749,148.936157 193.139191,148.936157 
	C195.648758,144.125778 199.315155,146.713364 202.384766,146.011932 
z"/>
<path fill="#F9F9F9" opacity="1.000000" stroke="none" 
	d="
M74.002197,28.107216 
	C74.179306,28.721210 74.077698,28.995024 73.886993,29.460411 
	C72.639381,30.888777 71.401131,32.095985 70.144707,33.628746 
	C68.741783,34.263981 67.357040,34.573666 65.972298,34.883350 
	C65.721375,34.490658 65.470451,34.097961 65.219528,33.705269 
	C68.080750,31.735718 70.941978,29.766167 74.002197,28.107216 
z"/>
<path fill="#F9F9F9" opacity="1.000000" stroke="none" 
	d="
M76.493225,59.648903 
	C72.540161,59.475140 73.135796,56.510975 72.999008,53.566551 
	C77.755104,53.098854 76.055649,56.874226 76.493225,59.648903 
z"/>
<path fill="#EFEFEF" opacity="1.000000" stroke="none" 
	d="
M80.181648,95.620590 
	C82.438286,94.355484 84.629944,93.348511 86.821609,92.341537 
	C87.128235,98.055771 83.352188,95.916359 80.833817,96.904709 
	C80.332741,96.539062 80.224709,96.208900 80.181648,95.620590 
z"/>
<path fill="#F9F9F9" opacity="1.000000" stroke="none" 
	d="
M66.758057,68.353348 
	C67.393883,67.178215 68.117859,66.293877 69.235672,64.928444 
	C69.960785,67.197403 70.432739,68.674202 70.952698,70.508591 
	C69.615875,70.125488 68.231033,69.384804 66.758057,68.353348 
z"/>
<path fill="#F3F3F3" opacity="1.000000" stroke="none" 
	d="
M165.358383,186.970047 
	C164.737991,186.513367 164.475815,186.025070 164.103470,185.281723 
	C166.203629,184.279129 168.413971,183.531555 170.624298,182.783997 
	C170.802933,183.196686 170.981552,183.609375 171.160187,184.022049 
	C169.345657,184.994171 167.531128,185.966309 165.358383,186.970047 
z"/>
<path fill="#F3F3F3" opacity="1.000000" stroke="none" 
	d="
M147.304626,217.808380 
	C147.000656,216.778809 147.004745,215.739243 147.008850,214.699692 
	C147.825897,215.049072 148.642944,215.398453 149.724579,215.871597 
	C149.197037,216.596375 148.404877,217.197372 147.304626,217.808380 
z"/>
<path fill="#F9F9F9" opacity="1.000000" stroke="none" 
	d="
M76.267998,31.422140 
	C76.578072,30.895443 76.835579,30.678310 77.299324,30.294714 
	C77.412483,31.309553 77.319405,32.490856 76.841774,33.929760 
	C76.376633,33.368809 76.296028,32.550255 76.267998,31.422140 
z"/>
<path fill="#F8F8F8" opacity="1.000000" stroke="none" 
	d="
M136.249954,109.830338 
	C136.186890,109.364021 136.354904,108.721420 136.822784,108.062111 
	C136.908783,108.581619 136.694901,109.117836 136.249954,109.830338 
z"/>
<path fill="#F9F9F9" opacity="1.000000" stroke="none" 
	d="
M49.257637,38.067360 
	C49.493546,38.512245 49.583473,39.202091 49.357094,39.945961 
	C49.064411,39.437431 49.088032,38.874878 49.257637,38.067360 
z"/>
<path fill="#F9F9F9" opacity="1.000000" stroke="none" 
	d="
M77.369064,42.262245 
	C77.759155,42.577862 78.072487,43.162361 78.162079,43.885757 
	C77.722992,43.526814 77.507645,43.028973 77.369064,42.262245 
z"/>
<path fill="#F9F9F9" opacity="1.000000" stroke="none" 
	d="
M79.099655,54.297440 
	C79.560867,54.773937 79.950775,55.549164 79.993599,56.572479 
	C79.440460,56.079102 79.234406,55.337635 79.099655,54.297440 
z"/>
<path fill="#F9F9F9" opacity="1.000000" stroke="none" 
	d="
M52.508488,92.551460 
	C52.121159,92.303368 51.646767,91.721954 51.475838,91.070084 
	C51.993340,91.405792 52.207382,91.811966 52.508488,92.551460 
z"/>
<path fill="#F9F9F9" opacity="1.000000" stroke="none" 
	d="
M164.924957,16.723021 
	C164.586060,16.347885 164.308945,15.694810 164.327728,14.925608 
	C164.744659,15.354680 164.865692,15.899881 164.924957,16.723021 
z"/>
<path fill="#F5F5F5" opacity="1.000000" stroke="none" 
	d="
M151.594376,180.764633 
	C151.675781,181.229187 151.498535,181.845825 151.170303,182.254150 
	C151.124786,181.669464 151.230255,181.293106 151.594376,180.764633 
z"/>
<path fill="#F9F9F9" opacity="1.000000" stroke="none" 
	d="
M75.321953,50.881386 
	C75.116348,50.295048 75.239868,49.667206 75.610275,49.019474 
	C75.788475,49.613018 75.719780,50.226452 75.321953,50.881386 
z"/>
<path fill="#F9F9F9" opacity="1.000000" stroke="none" 
	d="
M160.620529,36.002220 
	C160.451736,40.890675 160.010773,45.794361 159.252197,50.648418 
	C158.962692,52.500896 158.403046,54.760754 157.128159,55.880436 
	C155.906357,56.953499 153.492950,57.298588 151.811646,56.952133 
	C150.981262,56.781029 150.051895,54.291031 150.147675,52.918701 
	C150.522949,47.542717 151.288940,42.194004 151.943466,36.449707 
	C152.752228,34.047020 153.527267,32.029781 154.704025,30.139652 
	C155.187607,30.314795 155.269470,30.362829 155.351318,30.410866 
	C155.234207,30.273853 155.117111,30.136839 155.000000,29.999825 
	C155.645721,28.350693 156.291428,26.701559 156.937149,25.052425 
	C157.632568,25.230183 158.327988,25.407942 159.023407,25.585699 
	C158.605118,27.563828 158.405914,29.622421 157.716019,31.500799 
	C156.736694,34.167244 156.504517,36.093777 160.620529,36.002220 
z"/>
<path fill="#2F2F2F" opacity="1.000000" stroke="none" 
	d="
M135.893951,57.707466 
	C133.537674,56.888355 131.190399,55.819447 128.267273,54.449196 
	C127.128326,54.021355 126.565216,53.894855 126.002106,53.768356 
	C119.721657,50.575191 113.095444,50.743122 106.344055,51.569176 
	C104.819832,51.755665 103.196617,51.133060 101.497406,50.523994 
	C108.270584,50.089844 115.225906,49.441498 122.036575,50.161434 
	C125.916527,50.571568 129.560318,53.215775 133.798370,55.197174 
	C134.805573,55.849857 135.324875,56.159336 135.844162,56.468815 
	C135.773315,56.803806 135.792908,57.133427 135.893951,57.707466 
z"/>
<path fill="#F9F9F9" opacity="1.000000" stroke="none" 
	d="
M145.018311,29.496702 
	C144.108368,29.078169 143.179779,28.276882 142.141785,27.183750 
	C142.529770,25.573532 143.027145,24.255157 143.605362,22.722469 
	C144.109589,25.033825 144.554642,27.073889 145.018311,29.496702 
z"/>
<path fill="#F9F9F9" opacity="1.000000" stroke="none" 
	d="
M147.383423,64.999359 
	C147.554108,65.947449 147.324936,66.897141 146.961426,68.403618 
	C145.942078,67.156792 145.378296,66.467209 144.702179,65.462418 
	C145.387772,65.098465 146.185684,65.049706 147.383423,64.999359 
z"/>
<path fill="#F9F9F9" opacity="1.000000" stroke="none" 
	d="
M135.879379,56.108025 
	C135.324875,56.159336 134.805573,55.849857 134.142075,55.274307 
	C134.298676,54.505489 134.599487,54.002743 134.900299,53.499996 
	C135.238403,54.249077 135.576508,54.998158 135.879379,56.108025 
z"/>
<path fill="#F9F9F9" opacity="1.000000" stroke="none" 
	d="
M133.812836,21.310560 
	C133.270508,21.448732 132.768951,21.217550 132.039993,20.822727 
	C132.492935,20.753128 133.173279,20.847166 133.812836,21.310560 
z"/>
<path fill="#F9F9F9" opacity="1.000000" stroke="none" 
	d="
M137.719421,19.872742 
	C137.257797,19.774895 137.016068,19.637060 136.774338,19.499226 
	C137.015808,19.361898 137.324936,19.061695 137.482208,19.127037 
	C137.695496,19.215656 137.792465,19.584251 137.719421,19.872742 
z"/>
<path fill="#2F2F2F" opacity="1.000000" stroke="none" 
	d="
M99.897537,52.099312 
	C99.871437,52.043957 99.743240,52.166351 99.508217,52.226299 
	C99.401390,52.163853 99.795433,52.277061 99.897537,52.099312 
z"/>
<path fill="#F9F9F9" opacity="1.000000" stroke="none" 
	d="
M147.591568,62.018295 
	C147.863098,62.166740 147.905334,62.334770 147.874405,62.752174 
	C147.415802,62.832035 147.030334,62.662525 146.644882,62.493019 
	C146.884018,62.341309 147.123138,62.189594 147.591568,62.018295 
z"/>
<path fill="#F9F9F9" opacity="1.000000" stroke="none" 
	d="
M151.529175,25.546200 
	C151.477661,25.576124 151.580704,25.516275 151.529175,25.546200 
z"/>
<path fill="#F9F9F9" opacity="1.000000" stroke="none" 
	d="
M125.470894,23.453888 
	C125.522583,23.423901 125.419205,23.483875 125.470894,23.453888 
z"/>
<path fill="#020202" opacity="1.000000" stroke="none" 
	d="
M87.620239,56.089420 
	C87.819351,56.466518 87.677216,56.832474 87.239090,57.129013 
	C87.055061,56.732491 87.167030,56.405384 87.620239,56.089420 
z"/>
<path fill="#F9F9F9" opacity="1.000000" stroke="none" 
	d="
M141.579544,61.334068 
	C141.697754,61.115772 141.869370,60.899059 142.040985,60.682346 
	C142.034058,60.866764 142.027130,61.051178 141.825821,61.339062 
	C141.631454,61.442528 141.632965,61.335651 141.579544,61.334068 
z"/>
<path fill="#F9F9F9" opacity="1.000000" stroke="none" 
	d="
M62.394581,33.302086 
	C62.665222,34.362782 62.609837,35.262203 62.554451,36.161629 
	C61.211311,36.051582 59.489674,36.436104 58.589535,35.747211 
	C54.339100,32.494286 53.646183,25.888742 56.895058,20.218102 
	C57.627831,23.601713 58.086353,26.789242 59.078465,29.801001 
	C59.506855,31.101477 61.038227,32.038620 62.394581,33.302086 
z"/>
<path fill="#F9F9F9" opacity="1.000000" stroke="none" 
	d="
M66.596672,52.265255 
	C66.442772,52.142937 66.421097,51.933128 66.399429,51.723316 
	C66.509247,51.874798 66.619072,52.026279 66.596672,52.265255 
z"/>
<path fill="#090909" opacity="1.000000" stroke="none" 
	d="
M134.788605,81.998520 
	C131.980743,82.645096 129.535065,83.180344 127.089394,83.715584 
	C126.960625,81.155540 126.831856,78.595505 126.683601,75.647964 
	C130.016876,76.938423 132.419205,77.846390 134.803940,78.798523 
	C136.795303,79.593605 137.755280,80.552933 134.788605,81.998520 
z"/>
<path fill="#181818" opacity="1.000000" stroke="none" 
	d="
M117.275444,107.095329 
	C119.312843,107.760178 120.920120,108.375389 123.556511,109.384491 
	C119.458778,110.130775 116.620331,111.062866 113.786911,111.047806 
	C110.912254,111.032532 108.042564,110.082031 105.170692,109.541115 
	C105.099945,109.069061 105.029205,108.597008 104.958458,108.124954 
	C108.920746,107.765198 112.883041,107.405441 117.275444,107.095329 
z"/>
<path fill="#131313" opacity="1.000000" stroke="none" 
	d="
M97.941040,77.974594 
	C102.959656,74.091957 104.535324,79.233772 107.300301,81.511589 
	C104.291275,81.281853 101.941612,86.448219 98.242668,81.837326 
	C97.769073,80.531799 97.682091,79.794136 97.693878,78.789932 
	C97.842125,78.340462 97.891586,78.157524 97.941040,77.974594 
z"/>
<path fill="#DADADA" opacity="1.000000" stroke="none" 
	d="
M93.004761,83.193703 
	C91.843864,81.636238 90.682968,80.078773 90.079224,78.286118 
	C91.065529,77.963043 91.494682,77.875153 91.923836,77.787270 
	C92.116684,77.780884 92.309540,77.774490 92.827988,78.153503 
	C93.772820,80.029572 94.392052,81.520241 94.675377,83.022720 
	C93.894569,83.087593 93.449669,83.140648 93.004761,83.193703 
z"/>
<path fill="#F8F8F8" opacity="1.000000" stroke="none" 
	d="
M95.011276,83.010910 
	C94.392052,81.520241 93.772820,80.029572 93.117126,78.166473 
	C93.627022,77.712273 94.173363,77.630493 94.993393,78.033730 
	C96.043091,78.697990 96.819099,78.877235 97.595108,79.056473 
	C97.682091,79.794136 97.769073,80.531799 97.914101,81.639343 
	C97.447487,82.130455 96.922821,82.251678 95.952225,82.635925 
	C95.333260,82.928604 95.160233,82.958252 94.992966,82.993355 
	C94.998741,82.998810 95.011276,83.010910 95.011276,83.010910 
z"/>
<path fill="#EAEAEA" opacity="1.000000" stroke="none" 
	d="
M142.972427,86.397629 
	C143.452438,86.085266 143.901978,86.177910 144.678558,86.142441 
	C144.557297,87.560783 144.109024,89.107231 143.333145,90.826736 
	C143.005539,90.999794 142.863892,90.857536 142.863892,90.857536 
	C142.889908,89.505898 142.915939,88.154266 142.972427,86.397629 
z"/>
<path fill="#EAEAEA" opacity="1.000000" stroke="none" 
	d="
M143.080017,91.067101 
	C143.080597,92.009171 143.006699,92.883942 142.932800,93.758705 
	C142.386246,93.598206 141.839691,93.437714 141.293137,93.277222 
	C141.600662,92.528618 141.908173,91.780006 142.539795,90.944473 
	C142.863892,90.857536 143.005539,90.999794 143.080017,91.067101 
z"/>
<path fill="#F8F8F8" opacity="1.000000" stroke="none" 
	d="
M126.038025,54.104500 
	C126.565216,53.894855 127.128326,54.021355 127.935287,54.302883 
	C127.477409,54.452156 126.775681,54.446400 126.038025,54.104500 
z"/>
<path fill="#F8F8F8" opacity="1.000000" stroke="none" 
	d="
M104.045067,71.407135 
	C104.281815,71.795647 104.279915,72.181870 104.250313,72.565971 
	C104.249504,72.576454 103.810616,72.571007 103.810120,72.561119 
	C103.790619,72.176460 103.798409,71.790421 104.045067,71.407135 
z"/>
<path fill="#F8F8F8" opacity="1.000000" stroke="none" 
	d="
M93.043549,83.462128 
	C93.449669,83.140648 93.894569,83.087593 94.675377,83.022720 
	C95.011276,83.010910 94.998741,82.998810 94.978348,83.262352 
	C94.967468,83.705200 94.976990,83.884514 94.986504,84.063835 
	C94.351776,83.952736 93.717056,83.841644 93.043549,83.462128 
z"/>
<path fill="#DADADA" opacity="1.000000" stroke="none" 
	d="
M97.693878,78.789932 
	C96.819099,78.877235 96.043091,78.697990 95.127777,78.244431 
	C95.726990,77.956078 96.465523,77.942032 97.572540,77.951294 
	C97.891586,78.157524 97.842125,78.340462 97.693878,78.789932 
z"/>
<path fill="#F8F8F8" opacity="1.000000" stroke="none" 
	d="
M133.639008,59.754105 
	C133.624359,59.992714 133.495285,60.122730 133.366211,60.252754 
	C133.418991,60.050339 133.471786,59.847923 133.639008,59.754105 
z"/>
<path fill="#F8F8F8" opacity="1.000000" stroke="none" 
	d="
M91.756340,77.599701 
	C91.494682,77.875153 91.065529,77.963043 90.305687,78.061508 
	C90.512947,77.852104 91.050896,77.632118 91.756340,77.599701 
z"/>
<path fill="#020202" opacity="1.000000" stroke="none" 
	d="
M83.366478,88.697227 
	C83.676147,88.901787 83.768143,89.287277 83.860130,89.672760 
	C83.506477,89.667419 83.152817,89.662079 82.760193,89.452942 
	C82.863747,89.125488 83.006279,89.001823 83.366478,88.697227 
z"/>
<path fill="#F8F8F8" opacity="1.000000" stroke="none" 
	d="
M135.361115,71.245850 
	C135.375748,71.007271 135.504791,70.877258 135.633850,70.747253 
	C135.581070,70.949646 135.528305,71.152039 135.361115,71.245850 
z"/>
<path fill="#F8F8F8" opacity="1.000000" stroke="none" 
	d="
M100.553528,119.329491 
	C100.669762,119.086517 100.854813,118.882202 101.039864,118.677887 
	C101.041862,118.866676 101.043869,119.055473 100.870781,119.376106 
	C100.695686,119.507950 100.622345,119.368149 100.553528,119.329491 
z"/>
<path fill="#F8F8F8" opacity="1.000000" stroke="none" 
	d="
M119.529099,97.545975 
	C119.477623,97.575821 119.580574,97.516121 119.529099,97.545975 
z"/>
<path fill="#F8F8F8" opacity="1.000000" stroke="none" 
	d="
M100.546097,86.470764 
	C100.576019,86.522293 100.516167,86.419235 100.546097,86.470764 
z"/>
<path fill="#F8F8F8" opacity="1.000000" stroke="none" 
	d="
M116.545914,83.470726 
	C116.575768,83.522202 116.516060,83.419250 116.545914,83.470726 
z"/>
<path fill="#DADADA" opacity="1.000000" stroke="none" 
	d="
M95.258163,83.940674 
	C94.976990,83.884514 94.967468,83.705200 94.972580,83.256897 
	C95.160233,82.958252 95.333260,82.928604 95.761795,82.832001 
	C95.854813,83.115875 95.692314,83.466698 95.258163,83.940674 
z"/>
<path fill="#F8F8F8" opacity="1.000000" stroke="none" 
	d="
M138.454132,72.529083 
	C138.424301,72.477623 138.483948,72.580544 138.454132,72.529083 
z"/>
<path fill="#F3F3F3" opacity="1.000000" stroke="none" 
	d="
M149.404190,165.735748 
	C149.557526,165.857803 149.579071,166.067108 149.600601,166.276428 
	C149.491196,166.125290 149.381790,165.974167 149.404190,165.735748 
z"/>
<path fill="#F3F3F3" opacity="1.000000" stroke="none" 
	d="
M137.529388,182.547623 
	C137.476089,182.578705 137.582687,182.516541 137.529388,182.547623 
z"/>
<path fill="#090909" opacity="1.000000" stroke="none" 
	d="
M39.748737,169.299194 
	C37.931232,173.272919 36.441891,176.955673 34.537842,180.409821 
	C33.531429,182.235565 32.088070,184.225235 30.324106,185.120346 
	C28.369495,186.112228 25.349642,186.844421 23.691906,185.975662 
	C22.457668,185.328842 21.947094,181.815155 22.336704,179.816589 
	C23.906883,171.762131 30.540384,166.901535 40.512306,166.206924 
	C40.294258,167.177948 40.099422,168.045609 39.748737,169.299194 
z"/>
<path fill="#131313" opacity="1.000000" stroke="none" 
	d="
M48.387512,163.804138 
	C47.630291,163.380402 46.916046,162.942886 46.977043,162.748016 
	C49.033939,156.176117 51.458931,149.799683 57.614574,145.445724 
	C56.036339,151.136642 54.596119,156.873611 52.728783,162.468033 
	C52.453537,163.292664 50.154579,163.441818 48.387512,163.804138 
z"/>
<path fill="#0F0F0F" opacity="1.000000" stroke="none" 
	d="
M151.174362,195.167786 
	C149.110764,200.522308 147.278000,205.986603 144.820709,211.153900 
	C144.209076,212.440063 141.579834,212.766769 139.877960,213.534470 
	C139.466278,211.721558 138.443878,209.797058 138.751160,208.115524 
	C139.931885,201.653961 144.923447,198.154999 150.435028,194.855331 
	C150.901947,194.902954 151.174362,195.167786 151.174362,195.167786 
z"/>
<path fill="#0F0F0F" opacity="1.000000" stroke="none" 
	d="
M150.766357,194.769882 
	C150.951736,194.751587 151.272690,194.866364 151.384003,195.074463 
	C151.174362,195.167786 150.901947,194.902954 150.766357,194.769882 
z"/>
<path fill="#EEEEEE" opacity="1.000000" stroke="none" 
	d="
M82.468018,127.450424 
	C82.522896,127.417824 82.413139,127.483032 82.468018,127.450424 
z"/>
<path fill="#EEEEEE" opacity="1.000000" stroke="none" 
	d="
M62.443867,109.679764 
	C62.324291,109.910583 62.139484,110.116508 61.954674,110.322441 
	C61.959282,110.134514 61.963894,109.946594 62.154278,109.639664 
	C62.340054,109.520660 62.378635,109.654869 62.443867,109.679764 
z"/>
<path fill="#FAFAFA" opacity="1.000000" stroke="none" 
	d="
M155.000000,29.999912 
	C155.117111,30.136839 155.234207,30.273853 155.351318,30.410866 
	C155.269470,30.362829 155.187607,30.314795 155.052887,30.133495 
	C155.000000,30.000229 155.000000,30.000000 155.000000,29.999912 
z"/>
</svg>