<?xml version="1.0" encoding="utf-8"?>
<!-- Generator: Adobe Illustrator 16.0.0, SVG Export Plug-In . SVG Version: 6.00 Build 0)  -->
<!DOCTYPE svg PUBLIC "-//W3C//DTD SVG 1.1//EN" "http://www.w3.org/Graphics/SVG/1.1/DTD/svg11.dtd">
<svg version="1.1" id="Layer_1" xmlns="http://www.w3.org/2000/svg" xmlns:xlink="http://www.w3.org/1999/xlink" x="0px" y="0px"
	 width="128px" height="128px" viewBox="0 0 128 128" enable-background="new 0 0 128 128" xml:space="preserve">
<g>
	<g>
		<polygon fill="#282D33" points="33.871,117.301 8.723,117.301 8.723,104.152 12.723,104.152 12.723,113.301 29.871,113.301 
			29.871,104.152 33.871,104.152 		"/>
	</g>
	<g>
		<polygon fill="#282D33" points="122.014,117.301 96.861,117.301 96.861,104.787 100.861,104.787 100.861,113.301 118.014,113.301 
			118.014,104.787 122.014,104.787 		"/>
	</g>
	<g>
		<path fill="#282D33" d="M121.773,106.331H6.227c-3.434,0-6.227-2.766-6.227-6.164V16.865c0-3.4,2.793-6.166,6.227-6.166h115.546
			c3.434,0,6.227,2.766,6.227,6.166v83.302C128,103.565,125.207,106.331,121.773,106.331z M6.227,14.699
			C4.999,14.699,4,15.671,4,16.865v83.302c0,1.193,0.999,2.164,2.227,2.164h115.546c1.228,0,2.227-0.971,2.227-2.164V16.865
			c0-1.194-0.999-2.166-2.227-2.166H6.227z"/>
	</g>
	<g>
		<polygon fill="#282D33" points="116.833,94.012 15.9,94.012 15.9,90.012 112.833,90.012 112.833,27.018 15.9,27.018 15.9,23.018 
			116.833,23.018 		"/>
	</g>
	<g>
		<path fill="#282D33" d="M24.048,46.402H8.561V26.445h15.487V46.402z M12.561,42.402h7.487V30.445h-7.487V42.402z"/>
	</g>
	<g>
		<path fill="#282D33" d="M24.048,90.477H8.561V70.518h15.487V90.477z M12.561,86.477h7.487V74.518h-7.487V86.477z"/>
	</g>
	<g>
		<g>
			<path fill="#282D33" d="M65.366,80.793c-11.96,0-21.691-9.866-21.691-21.994c0-12.125,9.731-21.991,21.691-21.991
				c11.962,0,21.694,9.865,21.694,21.991C87.061,70.927,77.328,80.793,65.366,80.793z M65.366,40.808
				c-9.755,0-17.691,8.071-17.691,17.991c0,9.922,7.937,17.994,17.691,17.994c9.757,0,17.694-8.072,17.694-17.994
				C83.061,48.879,75.123,40.808,65.366,40.808z"/>
		</g>
		<g>
			<path fill="#282D33" d="M65.367,68.876c-5.49,0-9.957-4.521-9.957-10.077c0-5.556,4.467-10.077,9.957-10.077
				s9.957,4.521,9.957,10.077C75.324,64.355,70.857,68.876,65.367,68.876z M65.367,52.722c-3.285,0-5.957,2.726-5.957,6.077
				c0,3.351,2.672,6.077,5.957,6.077c3.285,0,5.957-2.726,5.957-6.077C71.324,55.448,68.652,52.722,65.367,52.722z"/>
		</g>
	</g>
	<g>
		<rect x="16.447" y="52.266" fill="#282D33" width="4" height="11.334"/>
	</g>
</g>
</svg>
